<?xml version="1.0" encoding="iso-8859-1"?>
<!-- Uploaded to: SVG Repo, www.svgrepo.com, Generator: SVG Repo Mixer Tools -->
<svg version="1.1" id="Layer_1" xmlns="http://www.w3.org/2000/svg" xmlns:xlink="http://www.w3.org/1999/xlink" 
	 viewBox="0 0 512.001 512.001" xml:space="preserve">
<path style="fill:#FFFFFF;" d="M38.555,86.444h384.948c15.682,0,28.394,12.712,28.394,28.394v228.55
	c0,15.682-12.712,28.394-28.394,28.394H38.555c-15.682,0-28.394-12.712-28.394-28.394v-228.55
	C10.161,99.156,22.873,86.444,38.555,86.444z"/>
<path style="fill:#D6D6D6;" d="M423.503,379.713H38.547c-20.049-0.027-36.295-16.276-36.318-36.325V114.838
	C2.255,94.792,18.5,78.547,38.547,78.52h384.956c20.049,0.026,36.295,16.276,36.318,36.325v228.541
	C459.798,363.437,443.552,379.687,423.503,379.713z M38.547,94.383c-11.293,0.017-20.441,9.17-20.455,20.463v228.541
	c0.013,11.293,9.162,20.446,20.455,20.463h384.956c11.293-0.018,20.441-9.17,20.455-20.463v-228.55
	c-0.013-11.293-9.162-20.446-20.455-20.463L38.547,94.383z"/>
<path style="fill:#666666;" d="M352.113,121.817H336.25V36.484c0-11.367-9.199-20.591-20.566-20.622H144.693
	c-11.367,0.031-20.566,9.254-20.566,20.622v85.334h-15.863V36.484c0-20.128,16.3-36.454,36.429-36.484h171
	c20.128,0.031,36.429,16.356,36.429,36.484L352.113,121.817z"/>
<rect x="18.045" y="168.387" style="fill:#E21B1B;" width="425.912" height="15.863"/>
<path style="fill:#333333;" d="M369.569,231.596c-77.431,0-140.203,62.77-140.203,140.203s62.77,140.203,140.203,140.203
	s140.203-62.772,140.203-140.204c0-0.005,0-0.01,0-0.015C509.763,294.357,446.996,231.596,369.569,231.596z"/>
<polygon style="fill:#FFFFFF;" points="418.332,307.07 348.155,393.625 318.658,364.508 299.202,385.932 350.432,436.486 
	439.929,326.105 "/>
</svg>